# xmcd CD database file
# Generated: Sun Dec 14 19:48:53 2008 by WSPse's MP3c
#
# Track frame offsets:
#       150
#       66581
#       78537
#       92164
#       135385
#       151277
#       196638
#       213844
#       265199
#
# Disc length: 4092 seconds
#
# Revision: 1
# Processed by: cddbd v1.5.2PL0 Copyright (c) Steve Scherf et al.
# Submitted via: MP3c 0.31
#   WSPse mp3c-0.31 (NLS) - ENGLISH (Jul 12 2008) Default:OGG
#
DISCID=750ffa09
DTITLE=Jack Rose - Two Originals Of...
DYEAR=2004
DGENRE=
TTITLE0=Red Horse
TTITLE1=Dark was the Night, Cold was the Ground
TTITLE2=White Mule
TTITLE3=White Mule II
TTITLE4=Hide the Whiskey (Blues for the Colonel)
TTITLE5=Yaman Blues
TTITLE6=Linden Ave Stomp
TTITLE7=Mountaintop Lamento
TTITLE8=Black Pearls
EXTD=
EXTT0=
EXTT1=
EXTT2=
EXTT3=
EXTT4=
EXTT5=
EXTT6=
EXTT7=
EXTT8=
PLAYORDER=
